<svg xmlns="http://www.w3.org/2000/svg" width="800.4" height="800.4"><path d="M54.47 1044.432c-61.2-28.397-73.065-105.636-23.14-150.647 36.567-32.968 86.515-31.06 122.246 4.67s37.638 85.679 4.67 122.246c-27.238 30.211-69.151 39.796-103.776 23.73m306.61-2.03c-50.06-23.31-66.831-87.684-34.797-133.559 14.84-21.252 47.902-38.56 73.655-38.56s58.814 17.308 73.654 38.56c22.441 32.136 21.263 77.542-2.832 109.132-14.129 18.524-46.427 34.054-70.822 34.054-10.677 0-26.717-3.974-38.858-9.627m311.595 2.168c-31.195-14.208-54.46-49.583-54.525-82.906-.09-47.025 44.334-91.45 91.36-91.359 33.322.065 68.697 23.33 82.905 54.525 33.31 73.14-46.6 153.05-119.74 119.74M67.887 739.173c-26.362-6.797-46.876-23.777-58.258-48.222-12.406-26.644-12.406-51.072 0-77.716 30.133-64.716 122.245-68.945 158.388-7.272 41.033 70.018-21.671 153.438-100.13 133.21m315.889 1.855c-72.066-13.446-99.18-104.643-45.827-154.133 18.624-17.276 36.908-24.503 61.989-24.503 50.773 0 89.7 38.928 89.7 89.7 0 56.493-50.837 99.202-105.862 88.936m307.082-.485c-39.688-7.657-72.73-47.84-72.73-88.45 0-25.753 17.308-58.814 38.56-73.655 45.875-32.034 110.25-15.263 133.559 34.797 12.454 26.748 12.412 51.06-.137 78.012-10.776 23.144-34.6 43.44-56.05 47.75-7.094 1.425-15.625 3.145-18.959 3.822s-14.243-.347-24.243-2.276M59.015 427.967c-47.05-16.771-72.294-76.345-51.416-121.342 28.396-61.2 105.635-73.065 150.647-23.14 32.968 36.567 31.06 86.515-4.67 122.246-26.792 26.79-59.924 34.582-94.561 22.236m300.037-5.351c-66.527-34.755-65.333-129.467 2.028-160.832 26.644-12.406 51.072-12.406 77.716 0 67.361 31.365 68.555 126.077 2.027 160.832-28.919 15.107-52.852 15.107-81.77 0m319.684 5.98c-30.817-9.769-60.651-52.153-60.586-86.075.064-33.323 23.33-68.698 54.525-82.905 57.948-26.391 127.1 18.97 127.1 83.374 0 61.783-60.717 104.725-121.039 85.605" style="fill:#314160" transform="translate(0 -251.962)"/></svg>