<svg xmlns="http://www.w3.org/2000/svg" xml:space="preserve" width="800" height="800" fill="#38bdf8" stroke="#38bdf8" viewBox="0 0 24 24"><path fill-rule="evenodd" d="M12 6.036q-4 0-5 3.976 1.5-1.987 3.5-1.491c.761.189 1.305.738 1.906 1.345C13.387 10.855 14.522 12 17 12q4 0 5-3.976-1.5 1.987-3.5 1.491c-.761-.189-1.305-.738-1.907-1.345-.98-.99-2.114-2.134-4.593-2.134zM7 12q-4 0-5 3.976 1.5-1.988 3.5-1.491c.761.189 1.305.738 1.907 1.345.98.989 2.115 2.134 4.594 2.134q4 0 5-3.976-1.5 1.987-3.5 1.491c-.761-.189-1.305-.738-1.906-1.345C10.613 13.145 9.478 12 7 12z" clip-rule="evenodd"/></svg>