<svg xmlns="http://www.w3.org/2000/svg" width="48" height="48" clip-rule="evenodd"><linearGradient id="a" x1="22.48" x2="31.833" y1="19.823" y2="45.52" gradientUnits="userSpaceOnUse"><stop offset="0" stop-color="#3940a4"/><stop offset="1" stop-color="#293091"/></linearGradient><path fill="url(#a)" fill-rule="evenodd" d="M22.903 3.286a2.25 2.25 0 0 1 2.193 0l16.807 9.434A2.12 2.12 0 0 1 43 14.566v18.867c0 .762-.418 1.466-1.097 1.847l-16.807 9.434a2.25 2.25 0 0 1-2.193 0L6.096 35.28A2.12 2.12 0 0 1 5 33.434V14.567c0-.762.418-1.466 1.097-1.847z"/><linearGradient id="b" x1="16.43" x2="26.687" y1="3.382" y2="31.562" gradientUnits="userSpaceOnUse"><stop offset="0" stop-color="#7b83eb"/><stop offset="1" stop-color="#5961c3"/></linearGradient><path fill="url(#b)" fill-rule="evenodd" d="M5.304 34.404C5.038 34.048 5 33.71 5 33.255V14.496c0-.758.417-1.458 1.094-1.836l16.748-9.38c.677-.379 1.594-.371 2.271.008 3.343 1.872 13.371 7.459 16.714 9.331.27.152.476.335.66.576z"/><path fill="#fff" fill-rule="evenodd" d="M24 10c7.727 0 14 6.273 14 14s-6.273 14-14 14-14-6.273-14-14 6.273-14 14-14m0 7c3.863 0 7 3.136 7 7s-3.137 7-7 7-7-3.137-7-7 3.136-7 7-7"/><linearGradient id="c" x1="31.031" x2="39.734" y1="12.865" y2="36.777" gradientUnits="userSpaceOnUse"><stop offset="0" stop-color="#5c65d6"/><stop offset=".999" stop-color="#464eb0"/></linearGradient><path fill="url(#c)" fill-rule="evenodd" d="M42.485 13.205c.516.483.506 1.211.506 1.784 0 3.795-.032 14.589.009 18.384.004.396-.127.813-.323 1.127L23.593 24z"/><path d="M24 10c5.128 0 9.602 2.771 12.041 6.887l-6.073 3.47A6.99 6.99 0 0 0 24 17c-3.864 0-7 3.136-7 7s3.137 7 7 7a6.99 6.99 0 0 0 6.029-3.459l6.132 3.374C33.75 35.142 29.21 38 24 38c-7.727 0-14-6.273-14-14s6.273-14 14-14m0-1C15.729 9 9 15.729 9 24s6.729 15 15 15c5.367 0 10.36-2.908 13.03-7.59l.503-.882-.89-.49-6.132-3.374-.851-.468-.493.837A6.03 6.03 0 0 1 24 30c-3.308 0-6-2.692-6-6s2.692-6 6-6a5.96 5.96 0 0 1 5.115 2.879l.507.828.842-.481 6.073-3.47.882-.504-.518-.874C34.205 11.827 29.262 9 24 9" opacity=".05"/><path d="M24 10c5.128 0 9.602 2.771 12.041 6.887l-6.073 3.47A6.99 6.99 0 0 0 24 17c-3.864 0-7 3.136-7 7s3.137 7 7 7a6.99 6.99 0 0 0 6.029-3.459l6.132 3.374C33.75 35.142 29.21 38 24 38c-7.727 0-14-6.273-14-14s6.273-14 14-14m0-.5C16.005 9.5 9.5 16.005 9.5 24S16.005 38.5 24 38.5c5.188 0 10.014-2.812 12.595-7.337l.252-.441-.445-.245-6.132-3.374-.425-.234-.246.418A6.53 6.53 0 0 1 24 30.5c-3.584 0-6.5-2.916-6.5-6.5s2.916-6.5 6.5-6.5a6.46 6.46 0 0 1 5.542 3.118l.253.414.421-.241 6.073-3.47.441-.252-.259-.437C33.864 12.233 29.086 9.5 24 9.5" opacity=".07"/></svg>