{
	"asset":{
		"generator":"Khronos glTF Blender I/O v4.2.57",
		"version":"2.0"
	},
	"extensionsUsed":[
		"KHR_materials_specular",
		"KHR_materials_ior",
		"KHR_texture_transform"
	],
	"extensionsRequired":[
		"KHR_texture_transform"
	],
	"scene":0,
	"scenes":[
		{
			"name":"Scene",
			"nodes":[
				7,
				8
			]
		}
	],
	"nodes":[
		{
			"mesh":0,
			"name":"Hat__0"
		},
		{
			"children":[
				0
			],
			"name":"Hat",
			"rotation":[
				0,
				-0.04099201411008835,
				0,
				0.9991594552993774
			],
			"scale":[
				0.7371906042098999,
				0.7652063965797424,
				0.8349999785423279
			],
			"translation":[
				0.12842196226119995,
				0.1010483056306839,
				-0.07235578447580338
			]
		},
		{
			"mesh":1,
			"name":"Propeller__0"
		},
		{
			"children":[
				2
			],
			"name":"Propeller",
			"rotation":[
				-0.04653630405664444,
				-0.040115147829055786,
				-0.01935676671564579,
				0.9979231953620911
			],
			"scale":[
				1.3593800067901611,
				1.3593800067901611,
				1.3593798875808716
			],
			"translation":[
				0.17482393980026245,
				10.932872772216797,
				0.053701311349868774
			]
		},
		{
			"children":[
				1,
				3
			],
			"name":"Hat_Solo"
		},
		{
			"children":[
				4
			],
			"name":"RootNode"
		},
		{
			"children":[
				5
			],
			"name":"ea4a7721b4f34bd6aa06282202a097a4.fbx",
			"rotation":[
				0.70710688829422,
				0,
				0,
				0.7071066498756409
			]
		},
		{
			"children":[
				6
			],
			"name":"Sketchfab_model",
			"rotation":[
				-0.70710688829422,
				0,
				0,
				0.7071066498756409
			],
			"scale":[
				0.11728565394878387,
				0.11728566884994507,
				0.11728566884994507
			]
		},
		{
			"mesh":2,
			"name":"Sphere",
			"rotation":[
				0.30211734771728516,
				0,
				0,
				0.9532707333564758
			],
			"scale":[
				1.0351094007492065,
				1.0820962190628052,
				1.0973814725875854
			],
			"translation":[
				0.010536548681557178,
				0,
				-0.07167629152536392
			]
		}
	],
	"materials":[
		{
			"doubleSided":true,
			"extensions":{
				"KHR_materials_specular":{
					"specularTexture":{
						"index":0
					},
					"specularColorFactor":[
						0,
						0,
						0
					],
					"specularColorTexture":{
						"index":1
					}
				},
				"KHR_materials_ior":{
					"ior":1000
				}
			},
			"name":"Scene_-_Root",
			"normalTexture":{
				"index":2
			},
			"pbrMetallicRoughness":{
				"baseColorFactor":[
					0.8492758870124817,
					0.8492758870124817,
					0.8492758870124817,
					1
				],
				"baseColorTexture":{
					"index":3
				},
				"metallicFactor":0,
				"metallicRoughnessTexture":{
					"index":4
				}
			}
		},
		{
			"doubleSided":true,
			"name":"Material.001",
			"pbrMetallicRoughness":{
				"baseColorTexture":{
					"extensions":{
						"KHR_texture_transform":{
							"offset":[
								0,
								0.10000002384185791
							],
							"scale":[
								2,
								0.8999999761581421
							]
						}
					},
					"index":5
				},
				"metallicFactor":0,
				"roughnessFactor":0.5
			}
		}
	],
	"meshes":[
		{
			"name":"Hat__0",
			"primitives":[
				{
					"attributes":{
						"POSITION":0,
						"NORMAL":1,
						"TEXCOORD_0":2
					},
					"indices":3,
					"material":0
				}
			]
		},
		{
			"name":"Propeller__0",
			"primitives":[
				{
					"attributes":{
						"POSITION":4,
						"NORMAL":5,
						"TEXCOORD_0":6
					},
					"indices":7,
					"material":0
				}
			]
		},
		{
			"name":"Sphere",
			"primitives":[
				{
					"attributes":{
						"POSITION":8,
						"NORMAL":9,
						"TEXCOORD_0":10
					},
					"indices":11,
					"material":1
				}
			]
		}
	],
	"textures":[
		{
			"sampler":0,
			"source":0
		},
		{
			"sampler":0,
			"source":0
		},
		{
			"sampler":0,
			"source":1
		},
		{
			"sampler":0,
			"source":2
		},
		{
			"sampler":0,
			"source":3
		},
		{
			"sampler":1,
			"source":4
		}
	],
	"images":[
		{
			"mimeType":"image/png",
			"name":"specular_1",
			"uri":"textures/specular_1.png"
		},
		{
			"mimeType":"image/png",
			"name":"normal_1",
			"uri":"textures/normal_1.png"
		},
		{
			"mimeType":"image/png",
			"name":"baseColor_1",
			"uri":"textures/baseColor_1.png"
		},
		{
			"mimeType":"image/png",
			"name":"metallicRoughness_1",
			"uri":"textures/metallicRoughness_1.png"
		},
		{
			"mimeType":"image/png",
			"name":"facetexture",
			"uri":"textures/facetexture.png"
		}
	],
	"accessors":[
		{
			"bufferView":0,
			"componentType":5126,
			"count":929,
			"max":[
				12.300307273864746,
				14.743236541748047,
				19.339332580566406
			],
			"min":[
				-12.300307273864746,
				-3.0536139011383057,
				-12.300307273864746
			],
			"type":"VEC3"
		},
		{
			"bufferView":1,
			"componentType":5126,
			"count":929,
			"type":"VEC3"
		},
		{
			"bufferView":2,
			"componentType":5126,
			"count":929,
			"type":"VEC2"
		},
		{
			"bufferView":3,
			"componentType":5123,
			"count":3393,
			"type":"SCALAR"
		},
		{
			"bufferView":4,
			"componentType":5126,
			"count":1066,
			"max":[
				7.7354607582092285,
				1.081413745880127,
				5.997516632080078
			],
			"min":[
				-7.7354607582092285,
				-1.081413745880127,
				-5.997516632080078
			],
			"type":"VEC3"
		},
		{
			"bufferView":5,
			"componentType":5126,
			"count":1066,
			"type":"VEC3"
		},
		{
			"bufferView":6,
			"componentType":5126,
			"count":1066,
			"type":"VEC2"
		},
		{
			"bufferView":7,
			"componentType":5123,
			"count":6060,
			"type":"SCALAR"
		},
		{
			"bufferView":8,
			"componentType":5126,
			"count":1984,
			"max":[
				0.9999997019767761,
				1,
				0.9999993443489075
			],
			"min":[
				-0.9999990463256836,
				-1,
				-1
			],
			"type":"VEC3"
		},
		{
			"bufferView":9,
			"componentType":5126,
			"count":1984,
			"type":"VEC3"
		},
		{
			"bufferView":10,
			"componentType":5126,
			"count":1984,
			"type":"VEC2"
		},
		{
			"bufferView":11,
			"componentType":5123,
			"count":2880,
			"type":"SCALAR"
		}
	],
	"bufferViews":[
		{
			"buffer":0,
			"byteLength":11148,
			"byteOffset":0,
			"target":34962
		},
		{
			"buffer":0,
			"byteLength":11148,
			"byteOffset":11148,
			"target":34962
		},
		{
			"buffer":0,
			"byteLength":7432,
			"byteOffset":22296,
			"target":34962
		},
		{
			"buffer":0,
			"byteLength":6786,
			"byteOffset":29728,
			"target":34963
		},
		{
			"buffer":0,
			"byteLength":12792,
			"byteOffset":36516,
			"target":34962
		},
		{
			"buffer":0,
			"byteLength":12792,
			"byteOffset":49308,
			"target":34962
		},
		{
			"buffer":0,
			"byteLength":8528,
			"byteOffset":62100,
			"target":34962
		},
		{
			"buffer":0,
			"byteLength":12120,
			"byteOffset":70628,
			"target":34963
		},
		{
			"buffer":0,
			"byteLength":23808,
			"byteOffset":82748,
			"target":34962
		},
		{
			"buffer":0,
			"byteLength":23808,
			"byteOffset":106556,
			"target":34962
		},
		{
			"buffer":0,
			"byteLength":15872,
			"byteOffset":130364,
			"target":34962
		},
		{
			"buffer":0,
			"byteLength":5760,
			"byteOffset":146236,
			"target":34963
		}
	],
	"samplers":[
		{
			"magFilter":9729,
			"minFilter":9987
		},
		{
			"magFilter":9729,
			"minFilter":9987,
			"wrapS":33071,
			"wrapT":33071
		}
	],
	"buffers":[
		{
			"byteLength":151996,
			"uri":"propellerhat.bin"
		}
	]
}
