{"asset":{"generator":"glTF-Transform v4.0.2","version":"2.0","extras":{"author":"tamzidfarhan (https://sketchfab.com/tamzidfarhan)","license":"CC-BY-4.0 (http://creativecommons.org/licenses/by/4.0/)","source":"https://sketchfab.com/3d-models/propeller-hat-ac50695f2ab24b2382ab7ebb8ba89d2d","title":"Propeller Hat"}},"accessors":[{"type":"VEC3","componentType":5126,"count":921,"max":[12.300307273864746,14.743236541748047,19.339332580566406],"min":[-12.300307273864746,-3.0536139011383057,-12.300307273864746],"bufferView":0,"byteOffset":0},{"type":"VEC3","componentType":5126,"count":921,"bufferView":0,"byteOffset":12},{"type":"VEC4","componentType":5126,"count":921,"bufferView":0,"byteOffset":24},{"type":"VEC2","componentType":5126,"count":921,"bufferView":0,"byteOffset":40},{"type":"SCALAR","componentType":5125,"count":3393,"bufferView":1,"byteOffset":0},{"type":"SCALAR","componentType":5125,"count":6060,"bufferView":1,"byteOffset":13572},{"type":"VEC3","componentType":5126,"count":1066,"max":[7.7354607582092285,1.081413745880127,5.997516632080078],"min":[-7.7354607582092285,-1.081413745880127,-5.997516632080078],"bufferView":2,"byteOffset":0},{"type":"VEC3","componentType":5126,"count":1066,"bufferView":2,"byteOffset":12},{"type":"VEC4","componentType":5126,"count":1066,"bufferView":2,"byteOffset":24},{"type":"VEC2","componentType":5126,"count":1066,"bufferView":2,"byteOffset":40}],"bufferViews":[{"buffer":0,"byteOffset":0,"byteLength":44208,"byteStride":48,"target":34962},{"buffer":0,"byteOffset":44208,"byteLength":37812,"target":34963},{"buffer":0,"byteOffset":82020,"byteLength":51168,"byteStride":48,"target":34962}],"samplers":[{"magFilter":9729,"minFilter":9987,"wrapS":10497,"wrapT":10497}],"textures":[{"source":0,"sampler":0},{"source":1,"sampler":0},{"source":3,"sampler":0},{"source":2,"sampler":0}],"images":[{"mimeType":"image/png","uri":"baseColor_1.png"},{"mimeType":"image/png","uri":"normal_1.png"},{"mimeType":"image/png","uri":"specular_1.png"},{"mimeType":"image/png","uri":"metallicRoughness_1.png"}],"buffers":[{"uri":"propeller_hat.bin","byteLength":133188}],"materials":[{"name":"Scene_-_Root","doubleSided":true,"pbrMetallicRoughness":{"baseColorFactor":[0.8492759146341463,0.8492759146341463,0.8492759146341463,1],"metallicFactor":0,"baseColorTexture":{"index":0},"metallicRoughnessTexture":{"index":2}},"normalTexture":{"index":1},"extensions":{"KHR_materials_ior":{"ior":1000},"KHR_materials_specular":{"specularColorFactor":[0,0,0],"specularTexture":{"index":3},"specularColorTexture":{"index":3}}}}],"meshes":[{"name":"Hat__0","primitives":[{"attributes":{"NORMAL":1,"POSITION":0,"TANGENT":2,"TEXCOORD_0":3},"mode":4,"material":0,"indices":4}]},{"name":"Propeller__0","primitives":[{"attributes":{"NORMAL":7,"POSITION":6,"TANGENT":8,"TEXCOORD_0":9},"mode":4,"material":0,"indices":5}]}],"nodes":[{"name":"Sketchfab_model","rotation":[-0.7071067811865475,0,0,0.7071067811865476],"scale":[0.11728565394878387,0.11728565394878387,0.11728565394878387],"children":[1]},{"name":"ea4a7721b4f34bd6aa06282202a097a4.fbx","rotation":[0.7071067811865475,0,0,0.7071067811865476],"children":[2]},{"name":"RootNode","children":[3]},{"name":"Hat_Solo","children":[4,6]},{"name":"Hat","translation":[0.12842196226119995,0.1010483056306839,-0.07235578447580338],"rotation":[0,-0.04099201385763122,0,0.9991594741581024],"scale":[0.7371906638145447,0.7652063965797424,0.8349999785423279],"children":[5]},{"name":"Hat__0","mesh":0},{"name":"Propeller","translation":[0.17482393980026245,10.932872772216797,0.053701311349868774],"rotation":[-0.04653628885212805,-0.04011513306415604,-0.01935676028954881,0.9979230760685962],"scale":[1.3593800067901614,1.3593800067901614,1.3593800067901611],"children":[7]},{"name":"Propeller__0","mesh":1}],"scenes":[{"name":"Sketchfab_Scene","nodes":[0]}],"scene":0,"extensionsUsed":["KHR_materials_ior","KHR_materials_specular"]}